<?xml version="1.0" encoding="UTF-8"?>
<svg id="Layer_1" xmlns="http://www.w3.org/2000/svg" version="1.1" viewBox="0 0 1080 1080">
  <!-- Generator: Adobe Illustrator 30.2.1, SVG Export Plug-In . SVG Version: 2.1.1 Build 1)  -->
  <defs>
    <style>
      .st0 {
        fill: #24f;
      }
    </style>
  </defs>
  <path class="st0" d="M877.5,295.97V109.03c0-10.51-8.52-19.03-19.03-19.03h-430.97c-10.51,0-19.03,8.52-19.03,19.03v147.53c0,25.23-10.02,49.44-27.87,67.28l-155.81,155.81c-14.28,14.27-22.29,33.64-22.29,53.82v437.5c0,10.51,8.52,19.03,19.03,19.03h636.94c10.51,0,19.03-8.52,19.03-19.03v-186.94c0-10.51-8.52-19.03-19.03-19.03h-421.46c-5.25,0-9.51-4.26-9.51-9.51v-402.43c0-21.02,17.04-38.06,38.06-38.06h392.91c10.51,0,19.03-8.52,19.03-19.03Z"/>
</svg>